<svg id="Слой_1" data-name="Слой 1" xmlns="http://www.w3.org/2000/svg" viewBox="0 0 512 512"><defs><style>.cls-1{fill:#efb109;}</style></defs><title>settings-active</title><path class="cls-1" d="M483.9,200.41l-40.1-5.1A201.93,201.93,0,0,0,431.66,166l24.77-31.89a31.72,31.72,0,0,0-2.61-42.22l-33.6-33.6a31.8,31.8,0,0,0-42.34-2.71L346,80.34A201.25,201.25,0,0,0,316.69,68.2l-5.1-40A32,32,0,0,0,279.89,0H232.11a32,32,0,0,0-31.7,28.1l-5.1,40.1A199.06,199.06,0,0,0,166,80.34L134.1,55.57a31.74,31.74,0,0,0-42.22,2.61L58.28,91.75a31.82,31.82,0,0,0-2.71,42.37L80.34,166A199.72,199.72,0,0,0,68.2,195.31l-40,5.1A32,32,0,0,0,0,232.11v47.78a32,32,0,0,0,28.1,31.7l40.1,5.1A201.93,201.93,0,0,0,80.34,346L55.57,377.9a31.72,31.72,0,0,0,2.61,42.22l33.6,33.6a31.82,31.82,0,0,0,42.34,2.69L166,431.64a197.56,197.56,0,0,0,29.32,12.14l5.1,40a32,32,0,0,0,31.7,28.2h47.78a32,32,0,0,0,31.7-28.1l5.1-40.1A201.93,201.93,0,0,0,346,431.66l31.89,24.77a31.72,31.72,0,0,0,42.22-2.61l33.6-33.6a31.78,31.78,0,0,0,2.71-42.34L431.66,346a197.56,197.56,0,0,0,12.14-29.32l40-5.1A32,32,0,0,0,512,279.89V232.11a31.92,31.92,0,0,0-28.08-31.7ZM256,362.67A106.67,106.67,0,1,1,362.67,256,106.79,106.79,0,0,1,256,362.67Z"/></svg>